<?xml version="1.0" standalone="no"?>
<!DOCTYPE svg PUBLIC "-//W3C//DTD SVG 20010904//EN"
 "http://www.w3.org/TR/2001/REC-SVG-20010904/DTD/svg10.dtd">
<svg version="1.0" xmlns="http://www.w3.org/2000/svg"
 width="1024.000000pt" height="1024.000000pt" viewBox="0 0 1024.000000 1024.000000"
 preserveAspectRatio="xMidYMid meet">
<metadata>
Created by potrace 1.14, written by Peter Selinger 2001-2017
</metadata>
<g transform="translate(0.000000,1024.000000) scale(0.100000,-0.100000)"
fill="#000000" stroke="none">
<path d="M519 6647 c-3 -4 -4 -1777 -2 -1777 1 0 44 64 96 143 l93 142 -1 657
0 657 29 -27 c16 -15 67 -63 113 -107 47 -44 91 -83 98 -88 9 -5 76 56 214
193 111 110 201 202 201 205 0 4 -839 7 -841 2z"/>
<path d="M1289 6553 l-96 -98 2 -655 1 -655 92 -137 c51 -76 93 -138 95 -138
1 0 2 401 2 890 0 490 0 890 0 890 0 0 -43 -44 -96 -97z"/>
<path d="M1860 6555 l-95 -95 0 -655 0 -655 95 0 95 0 0 653 0 652 143 3 142
3 0 -651 c0 -357 3 -650 8 -650 4 0 47 40 95 89 l87 88 0 657 0 656 -238 0
-237 0 -95 -95z"/>
<path d="M2810 5901 c0 -590 3 -750 13 -753 10 -3 455 -2 533 1 19 1 20 7 19
94 l0 92 -188 0 -187 0 -1 25 c-1 33 -1 355 0 402 l1 36 178 1 c97 0 182 0
187 1 6 0 10 38 10 93 l0 92 -187 3 c-170 2 -188 4 -189 20 -1 26 -1 393 0
425 l1 27 93 0 92 0 55 54 c30 29 73 72 95 95 l39 41 -282 0 -282 0 0 -749z"/>
<path d="M3923 6556 l-93 -93 0 -229 0 -229 93 -77 c50 -43 104 -88 118 -100
15 -13 41 -35 59 -50 l32 -26 0 -174 c0 -95 0 -188 -1 -205 l-1 -33 -188 0
-187 0 0 -95 0 -95 95 0 95 0 80 81 c44 44 121 115 170 157 50 42 96 82 103
89 7 7 16 13 20 13 4 0 7 77 6 171 l-1 171 -35 32 c-19 17 -73 65 -119 107
-46 42 -99 88 -116 103 l-33 28 0 179 0 179 94 0 94 0 79 78 c43 44 84 86 92
95 12 16 -1 17 -175 16 l-189 0 -92 -93z"/>
<path d="M4867 6554 l-97 -96 0 -654 0 -655 96 3 96 3 0 653 0 652 142 0 143
0 1 -317 c0 -175 1 -322 1 -328 1 -5 43 33 94 87 l93 96 -1 324 0 323 -236 3
-236 2 -96 -96z"/>
<path d="M5820 6638 c-1 -16 -1 -1423 0 -1460 l0 -28 95 0 95 0 0 750 0 750
-95 0 c-69 0 -95 -3 -95 -12z"/>
<path d="M6690 6644 c0 -6 355 -364 362 -364 2 0 3 56 3 124 l-1 124 -63 61
-63 61 -119 0 c-65 0 -119 -3 -119 -6z"/>
<path d="M7430 5900 l0 -750 95 0 95 0 0 750 0 750 -95 0 -95 0 0 -750z"/>
<path d="M8001 6555 l0 -95 94 0 95 0 0 95 0 95 -94 0 -95 0 0 -95z"/>
<path d="M8235 6558 l0 -93 95 0 95 0 0 93 1 92 -96 0 -96 0 1 -92z"/>
<path d="M8468 6633 c-2 -10 -4 -52 -3 -93 l0 -75 95 -3 95 -3 95 96 95 95
-187 0 c-169 0 -186 -2 -190 -17z"/>
<path d="M6452 6578 c-34 -34 -62 -68 -63 -75 0 -7 -1 -26 -1 -43 0 -16 1
-318 1 -670 l1 -640 93 0 94 0 -1 680 -1 680 38 0 c20 0 37 2 37 4 0 6 -119
120 -129 124 -4 1 -35 -26 -69 -60z"/>
<path d="M8239 6415 c-1 0 -2 -285 -3 -632 l-1 -633 95 0 95 0 -1 623 c-1 342
-2 627 -3 633 -1 8 -124 15 -182 9z"/>
<path d="M6860 6060 l0 -255 95 95 95 95 0 65 0 65 -95 95 -95 95 0 -255z"/>
<path d="M2032 5967 c-34 -34 -62 -66 -62 -69 0 -9 120 -128 129 -128 4 0 35
29 70 64 l64 64 -66 66 c-36 36 -67 66 -69 66 -2 0 -32 -28 -66 -63z"/>
<path d="M5014 5991 c-2 -2 -4 -45 -4 -95 l0 -92 95 0 95 0 0 93 c0 67 -3 93
-12 94 -41 4 -170 3 -174 0z"/>
<path d="M6643 5990 c-16 -4 -18 -15 -17 -80 1 -41 2 -82 3 -91 1 -13 16 -16
93 -15 l93 1 0 93 c0 56 -3 92 -10 93 -38 4 -147 3 -162 -1z"/>
<path d="M6626 5611 l0 -160 100 -150 99 -151 113 0 112 0 -207 310 c-114 171
-209 310 -212 310 -3 0 -6 -72 -5 -159z"/>
<path d="M2003 5244 l0 -94 93 0 92 0 4 53 c1 28 2 71 0 95 l-3 43 -93 -2 -93
-1 0 -94z"/>
<path d="M5820 4540 c0 -65 3 -90 13 -91 72 -5 145 -4 157 2 12 6 15 25 15 91
l-1 83 -92 3 -92 3 0 -91z"/>
<path d="M6059 4598 c-2 -18 -2 -60 1 -93 l5 -59 78 -1 c44 0 83 3 89 6 8 5
13 91 9 162 -1 15 -12 17 -90 17 l-89 0 -3 -32z"/>
<path d="M6284 4538 l1 -93 95 1 95 1 65 66 c36 36 76 77 89 91 l24 26 -185 0
-185 0 1 -92z"/>
<path d="M6852 3875 l-2 -755 284 0 284 0 1 93 1 94 -175 -1 c-97 -1 -184 2
-193 5 -16 6 -17 28 -16 235 1 126 2 231 3 234 0 3 85 5 188 5 l188 0 2 93 2
92 -189 0 c-145 0 -190 3 -191 13 -5 64 -3 436 3 448 6 13 22 16 90 14 l83 -2
95 94 95 93 -276 0 -276 0 -1 -755z"/>
<path d="M7890 3875 l0 -755 270 0 c149 0 270 2 270 4 0 2 -40 44 -90 94 l-90
90 -67 0 c-38 0 -77 0 -88 1 -20 1 -20 7 -20 569 l0 567 92 1 93 1 92 91 93
92 -277 0 -278 0 0 -755z"/>
<path d="M8911 3875 l0 -756 92 3 92 3 0 740 c1 407 -1 746 -3 753 -3 8 -31
12 -93 12 l-88 0 0 -755z"/>
<path d="M9377 4623 c-2 -5 -3 -343 -3 -753 l1 -745 93 -3 92 -3 0 756 0 755
-89 0 c-50 0 -91 -3 -94 -7z"/>
<path d="M6064 4388 c-4 -6 -6 -745 -4 -1176 l0 -63 92 3 91 3 -1 610 c0 336
-1 615 -1 620 -1 12 -170 15 -177 3z"/>
<path d="M9174 3950 c-32 -33 -59 -64 -59 -68 0 -10 55 -72 97 -110 l26 -23
58 61 c33 33 59 65 59 69 0 9 -56 72 -97 109 l-24 22 -60 -60z"/>
</g>
</svg>
